<svg width="32" height="32" viewBox="0 0 32 32" fill="none" xmlns="http://www.w3.org/2000/svg">
<g clip-path="url(#clip0_77_3)">
<path d="M0 5C0 2.23858 2.23858 0 5 0H27C29.7614 0 32 2.23858 32 5V15.2853C32 17.3012 30.7894 19.12 28.9296 19.898L6.9296 29.1012C3.63531 30.4793 0 28.0594 0 24.4885V5Z" fill="url(#paint0_linear_77_3)"/>
<path d="M0 5C0 2.23858 2.23858 0 5 0H27C29.7614 0 32 2.23858 32 5V15.2853C32 17.3012 30.7894 19.12 28.9296 19.898L6.9296 29.1012C3.63531 30.4793 0 28.0594 0 24.4885V5Z" fill="black" fill-opacity="0.2"/>
<path d="M12.39 4.07L12.23 5.33H10.52V11H8.88V5.33H7.09V4.07H12.39ZM16.7704 11V8.03H14.6904V11H13.0504V4.07H14.6904V6.75H16.7704V4.07H18.4104V11H16.7704ZM21.9905 8.35H21.3505V11H19.7105V4.07H21.9805C22.9272 4.07 23.6372 4.24333 24.1105 4.59C24.5905 4.93667 24.8305 5.46667 24.8305 6.18C24.8305 6.62667 24.7239 7 24.5105 7.3C24.2972 7.59333 23.9605 7.84333 23.5005 8.05L25.2605 11H23.4105L21.9905 8.35ZM21.3505 7.22H22.0405C22.4072 7.22 22.6805 7.13667 22.8605 6.97C23.0472 6.80333 23.1405 6.54 23.1405 6.18C23.1405 5.84667 23.0405 5.60333 22.8405 5.45C22.6472 5.29667 22.3472 5.22 21.9405 5.22H21.3505V7.22Z" fill="black"/>
<path d="M7.99063 13.45C8.48396 13.45 8.86729 13.6083 9.14063 13.925C9.41729 14.2417 9.55563 14.6883 9.55563 15.265C9.55563 15.6417 9.49229 15.9667 9.36563 16.24C9.24229 16.5133 9.06229 16.7233 8.82563 16.87C8.59229 17.0133 8.31396 17.085 7.99063 17.085C7.66729 17.085 7.38896 17.0133 7.15563 16.87C6.92229 16.7267 6.74229 16.52 6.61563 16.25C6.49229 15.9767 6.43062 15.6483 6.43062 15.265C6.43062 14.8917 6.49229 14.5683 6.61563 14.295C6.74229 14.0217 6.92229 13.8133 7.15563 13.67C7.38896 13.5233 7.66729 13.45 7.99063 13.45ZM7.99063 14.05C7.75396 14.05 7.57729 14.1467 7.46063 14.34C7.34729 14.53 7.29063 14.8383 7.29063 15.265C7.29063 15.6917 7.34896 16.0017 7.46563 16.195C7.58229 16.3883 7.75729 16.485 7.99063 16.485C8.23063 16.485 8.40729 16.39 8.52063 16.2C8.63729 16.0067 8.69563 15.695 8.69563 15.265C8.69563 14.835 8.63729 14.525 8.52063 14.335C8.40396 14.145 8.22729 14.05 7.99063 14.05ZM10.8677 13.535V16.35H12.2177L12.1327 17H10.0477V13.535H10.8677ZM13.4311 13.535V17H12.6111V13.535H13.4311ZM16.671 13.535L15.706 17H14.686L13.686 13.535H14.551L15.211 16.36L15.831 13.535H16.671ZM19.0525 13.535L18.9675 14.12H17.7475V14.95H18.8125V15.525H17.7475V16.41H19.0525V17H16.9275V13.535H19.0525ZM20.3794 13.535V17H19.5594V13.535H20.3794ZM22.1642 15.675H21.8442V17H21.0242V13.535H22.1592C22.6326 13.535 22.9876 13.6217 23.2242 13.795C23.4642 13.9683 23.5842 14.2333 23.5842 14.59C23.5842 14.8133 23.5309 15 23.4242 15.15C23.3176 15.2967 23.1492 15.4217 22.9192 15.525L23.7992 17H22.8742L22.1642 15.675ZM21.8442 15.11H22.1892C22.3726 15.11 22.5092 15.0683 22.5992 14.985C22.6926 14.9017 22.7392 14.77 22.7392 14.59C22.7392 14.4233 22.6892 14.3017 22.5892 14.225C22.4926 14.1483 22.3426 14.11 22.1392 14.11H21.8442V15.11ZM25.9352 17L25.7552 16.255H24.7452L24.5702 17H23.7202L24.7652 13.535H25.7602L26.8052 17H25.9352ZM24.8852 15.66H25.6152L25.2502 14.13L24.8852 15.66Z" fill="black"/>
</g>
<defs>
<linearGradient id="paint0_linear_77_3" x1="16" y1="0" x2="16" y2="32" gradientUnits="userSpaceOnUse">
<stop stop-color="#BFF4BF"/>
<stop offset="1" stop-color="#18C718"/>
</linearGradient>
<clipPath id="clip0_77_3">
<rect width="32" height="32" fill="white"/>
</clipPath>
</defs>
</svg>
