<svg width="302" height="339" viewBox="0 0 302 339" fill="none" xmlns="http://www.w3.org/2000/svg">
<path d="M0 29C0 12.9837 12.9837 0 29 0H272.371C288.388 0 301.371 12.9837 301.371 29V189.059C301.371 200.092 295.11 210.17 285.219 215.058L41.8475 335.321C22.5736 344.845 0 330.821 0 309.322V29Z" fill="url(#paint0_linear_27_37)"/>
<path d="M0 29C0 12.9837 12.9837 0 29 0H272.371C288.388 0 301.371 12.9837 301.371 29V189.059C301.371 200.092 295.11 210.17 285.219 215.058L41.8475 335.321C22.5736 344.845 0 330.821 0 309.322V29Z" fill="black" fill-opacity="0.2"/>
<defs>
<linearGradient id="paint0_linear_27_37" x1="150.686" y1="0" x2="150.686" y2="356" gradientUnits="userSpaceOnUse">
<stop stop-color="#BFF4BF"/>
<stop offset="1" stop-color="#18C718"/>
</linearGradient>
</defs>
</svg>
