<svg width="21" height="21" viewBox="0 0 21 21" fill="none" xmlns="http://www.w3.org/2000/svg">
<path d="M10.4167 20.8333C8.99306 20.8333 7.64757 20.5599 6.38021 20.013C5.11285 19.4661 4.00608 18.7196 3.0599 17.7734C2.11372 16.8273 1.36719 15.7205 0.820313 14.4531C0.273438 13.1858 0 11.8403 0 10.4167C0 8.97569 0.273438 7.62587 0.820313 6.36719C1.36719 5.10851 2.11372 4.00608 3.0599 3.0599C4.00608 2.11372 5.11285 1.36719 6.38021 0.820313C7.64757 0.273438 8.99306 0 10.4167 0C11.8576 0 13.2075 0.273438 14.4661 0.820313C15.7248 1.36719 16.8273 2.11372 17.7734 3.0599C18.7196 4.00608 19.4661 5.10851 20.013 6.36719C20.5599 7.62587 20.8333 8.97569 20.8333 10.4167C20.8333 11.8403 20.5599 13.1858 20.013 14.4531C19.4661 15.7205 18.7196 16.8273 17.7734 17.7734C16.8273 18.7196 15.7248 19.4661 14.4661 20.013C13.2075 20.5599 11.8576 20.8333 10.4167 20.8333ZM10.4167 18.6979C10.8681 18.0729 11.2587 17.4219 11.5885 16.7448C11.9184 16.0677 12.1875 15.3472 12.3958 14.5833H8.4375C8.64583 15.3472 8.91493 16.0677 9.24479 16.7448C9.57465 17.4219 9.96528 18.0729 10.4167 18.6979ZM7.70833 18.2812C7.39583 17.7083 7.1224 17.1137 6.88802 16.4974C6.65365 15.8811 6.45833 15.2431 6.30208 14.5833H3.22917C3.73264 15.4514 4.36198 16.2066 5.11719 16.849C5.8724 17.4913 6.73611 17.9688 7.70833 18.2812ZM13.125 18.2812C14.0972 17.9688 14.9609 17.4913 15.7161 16.849C16.4714 16.2066 17.1007 15.4514 17.6042 14.5833H14.5313C14.375 15.2431 14.1797 15.8811 13.9453 16.4974C13.7109 17.1137 13.4375 17.7083 13.125 18.2812ZM2.34375 12.5H5.88542C5.83333 12.1528 5.79427 11.8099 5.76823 11.4714C5.74219 11.1328 5.72917 10.7813 5.72917 10.4167C5.72917 10.0521 5.74219 9.70052 5.76823 9.36198C5.79427 9.02344 5.83333 8.68056 5.88542 8.33333H2.34375C2.25694 8.68056 2.19184 9.02344 2.14844 9.36198C2.10503 9.70052 2.08333 10.0521 2.08333 10.4167C2.08333 10.7813 2.10503 11.1328 2.14844 11.4714C2.19184 11.8099 2.25694 12.1528 2.34375 12.5ZM7.96875 12.5H12.8646C12.9167 12.1528 12.9557 11.8099 12.9818 11.4714C13.0078 11.1328 13.0208 10.7813 13.0208 10.4167C13.0208 10.0521 13.0078 9.70052 12.9818 9.36198C12.9557 9.02344 12.9167 8.68056 12.8646 8.33333H7.96875C7.91667 8.68056 7.8776 9.02344 7.85156 9.36198C7.82552 9.70052 7.8125 10.0521 7.8125 10.4167C7.8125 10.7813 7.82552 11.1328 7.85156 11.4714C7.8776 11.8099 7.91667 12.1528 7.96875 12.5ZM14.9479 12.5H18.4896C18.5764 12.1528 18.6415 11.8099 18.6849 11.4714C18.7283 11.1328 18.75 10.7813 18.75 10.4167C18.75 10.0521 18.7283 9.70052 18.6849 9.36198C18.6415 9.02344 18.5764 8.68056 18.4896 8.33333H14.9479C15 8.68056 15.0391 9.02344 15.0651 9.36198C15.0911 9.70052 15.1042 10.0521 15.1042 10.4167C15.1042 10.7813 15.0911 11.1328 15.0651 11.4714C15.0391 11.8099 15 12.1528 14.9479 12.5ZM14.5313 6.25H17.6042C17.1007 5.38194 16.4714 4.62674 15.7161 3.98438C14.9609 3.34201 14.0972 2.86458 13.125 2.55208C13.4375 3.125 13.7109 3.71962 13.9453 4.33594C14.1797 4.95226 14.375 5.59028 14.5313 6.25ZM8.4375 6.25H12.3958C12.1875 5.48611 11.9184 4.76562 11.5885 4.08854C11.2587 3.41146 10.8681 2.76042 10.4167 2.13542C9.96528 2.76042 9.57465 3.41146 9.24479 4.08854C8.91493 4.76562 8.64583 5.48611 8.4375 6.25ZM3.22917 6.25H6.30208C6.45833 5.59028 6.65365 4.95226 6.88802 4.33594C7.1224 3.71962 7.39583 3.125 7.70833 2.55208C6.73611 2.86458 5.8724 3.34201 5.11719 3.98438C4.36198 4.62674 3.73264 5.38194 3.22917 6.25Z" fill="url(#paint0_linear_60_5)"/>
<path d="M10.4167 20.8333C8.99306 20.8333 7.64757 20.5599 6.38021 20.013C5.11285 19.4661 4.00608 18.7196 3.0599 17.7734C2.11372 16.8273 1.36719 15.7205 0.820313 14.4531C0.273438 13.1858 0 11.8403 0 10.4167C0 8.97569 0.273438 7.62587 0.820313 6.36719C1.36719 5.10851 2.11372 4.00608 3.0599 3.0599C4.00608 2.11372 5.11285 1.36719 6.38021 0.820313C7.64757 0.273438 8.99306 0 10.4167 0C11.8576 0 13.2075 0.273438 14.4661 0.820313C15.7248 1.36719 16.8273 2.11372 17.7734 3.0599C18.7196 4.00608 19.4661 5.10851 20.013 6.36719C20.5599 7.62587 20.8333 8.97569 20.8333 10.4167C20.8333 11.8403 20.5599 13.1858 20.013 14.4531C19.4661 15.7205 18.7196 16.8273 17.7734 17.7734C16.8273 18.7196 15.7248 19.4661 14.4661 20.013C13.2075 20.5599 11.8576 20.8333 10.4167 20.8333ZM10.4167 18.6979C10.8681 18.0729 11.2587 17.4219 11.5885 16.7448C11.9184 16.0677 12.1875 15.3472 12.3958 14.5833H8.4375C8.64583 15.3472 8.91493 16.0677 9.24479 16.7448C9.57465 17.4219 9.96528 18.0729 10.4167 18.6979ZM7.70833 18.2812C7.39583 17.7083 7.1224 17.1137 6.88802 16.4974C6.65365 15.8811 6.45833 15.2431 6.30208 14.5833H3.22917C3.73264 15.4514 4.36198 16.2066 5.11719 16.849C5.8724 17.4913 6.73611 17.9688 7.70833 18.2812ZM13.125 18.2812C14.0972 17.9688 14.9609 17.4913 15.7161 16.849C16.4714 16.2066 17.1007 15.4514 17.6042 14.5833H14.5313C14.375 15.2431 14.1797 15.8811 13.9453 16.4974C13.7109 17.1137 13.4375 17.7083 13.125 18.2812ZM2.34375 12.5H5.88542C5.83333 12.1528 5.79427 11.8099 5.76823 11.4714C5.74219 11.1328 5.72917 10.7813 5.72917 10.4167C5.72917 10.0521 5.74219 9.70052 5.76823 9.36198C5.79427 9.02344 5.83333 8.68056 5.88542 8.33333H2.34375C2.25694 8.68056 2.19184 9.02344 2.14844 9.36198C2.10503 9.70052 2.08333 10.0521 2.08333 10.4167C2.08333 10.7813 2.10503 11.1328 2.14844 11.4714C2.19184 11.8099 2.25694 12.1528 2.34375 12.5ZM7.96875 12.5H12.8646C12.9167 12.1528 12.9557 11.8099 12.9818 11.4714C13.0078 11.1328 13.0208 10.7813 13.0208 10.4167C13.0208 10.0521 13.0078 9.70052 12.9818 9.36198C12.9557 9.02344 12.9167 8.68056 12.8646 8.33333H7.96875C7.91667 8.68056 7.8776 9.02344 7.85156 9.36198C7.82552 9.70052 7.8125 10.0521 7.8125 10.4167C7.8125 10.7813 7.82552 11.1328 7.85156 11.4714C7.8776 11.8099 7.91667 12.1528 7.96875 12.5ZM14.9479 12.5H18.4896C18.5764 12.1528 18.6415 11.8099 18.6849 11.4714C18.7283 11.1328 18.75 10.7813 18.75 10.4167C18.75 10.0521 18.7283 9.70052 18.6849 9.36198C18.6415 9.02344 18.5764 8.68056 18.4896 8.33333H14.9479C15 8.68056 15.0391 9.02344 15.0651 9.36198C15.0911 9.70052 15.1042 10.0521 15.1042 10.4167C15.1042 10.7813 15.0911 11.1328 15.0651 11.4714C15.0391 11.8099 15 12.1528 14.9479 12.5ZM14.5313 6.25H17.6042C17.1007 5.38194 16.4714 4.62674 15.7161 3.98438C14.9609 3.34201 14.0972 2.86458 13.125 2.55208C13.4375 3.125 13.7109 3.71962 13.9453 4.33594C14.1797 4.95226 14.375 5.59028 14.5313 6.25ZM8.4375 6.25H12.3958C12.1875 5.48611 11.9184 4.76562 11.5885 4.08854C11.2587 3.41146 10.8681 2.76042 10.4167 2.13542C9.96528 2.76042 9.57465 3.41146 9.24479 4.08854C8.91493 4.76562 8.64583 5.48611 8.4375 6.25ZM3.22917 6.25H6.30208C6.45833 5.59028 6.65365 4.95226 6.88802 4.33594C7.1224 3.71962 7.39583 3.125 7.70833 2.55208C6.73611 2.86458 5.8724 3.34201 5.11719 3.98438C4.36198 4.62674 3.73264 5.38194 3.22917 6.25Z" fill="black" fill-opacity="0.2"/>
<defs>
<linearGradient id="paint0_linear_60_5" x1="10.4167" y1="0" x2="10.4167" y2="20.8333" gradientUnits="userSpaceOnUse">
<stop stop-color="#BFF4BF"/>
<stop offset="1" stop-color="#18C718"/>
</linearGradient>
</defs>
</svg>
