<svg width="25" height="25" viewBox="0 0 25 25" fill="none" xmlns="http://www.w3.org/2000/svg">
<path d="M7.29167 16.6666H9.375V4.16665H7.29167V16.6666ZM6.25 22.9166C5.38194 22.9166 4.6441 22.6128 4.03646 22.0052C3.42882 21.3976 3.125 20.6597 3.125 19.7916V5.20831C3.125 4.34026 3.42882 3.60241 4.03646 2.99477C4.6441 2.38713 5.38194 2.08331 6.25 2.08331H17.7083V18.75H6.25C5.95486 18.75 5.70747 18.8498 5.50781 19.0495C5.30816 19.2491 5.20833 19.4965 5.20833 19.7916C5.20833 20.0868 5.30816 20.3342 5.50781 20.5338C5.70747 20.7335 5.95486 20.8333 6.25 20.8333H19.7917V4.16665H21.875V22.9166H6.25Z" fill="url(#paint0_linear_60_2)"/>
<path d="M7.29167 16.6666H9.375V4.16665H7.29167V16.6666ZM6.25 22.9166C5.38194 22.9166 4.6441 22.6128 4.03646 22.0052C3.42882 21.3976 3.125 20.6597 3.125 19.7916V5.20831C3.125 4.34026 3.42882 3.60241 4.03646 2.99477C4.6441 2.38713 5.38194 2.08331 6.25 2.08331H17.7083V18.75H6.25C5.95486 18.75 5.70747 18.8498 5.50781 19.0495C5.30816 19.2491 5.20833 19.4965 5.20833 19.7916C5.20833 20.0868 5.30816 20.3342 5.50781 20.5338C5.70747 20.7335 5.95486 20.8333 6.25 20.8333H19.7917V4.16665H21.875V22.9166H6.25Z" fill="black" fill-opacity="0.2"/>
<defs>
<linearGradient id="paint0_linear_60_2" x1="12.5" y1="2.08331" x2="12.5" y2="22.9166" gradientUnits="userSpaceOnUse">
<stop stop-color="#BFF4BF"/>
<stop offset="1" stop-color="#18C718"/>
</linearGradient>
</defs>
</svg>
