<svg width="311" height="42" viewBox="0 0 311 42" fill="none" xmlns="http://www.w3.org/2000/svg">
<path d="M26.5 5.9L25.7 12.2H17.15V40.55H8.95V12.2H0V5.9H26.5Z" fill="black"/>
<path d="M29.5734 32.35C30.8068 32.35 31.8568 32.8 32.7234 33.7C33.6234 34.5667 34.0734 35.6167 34.0734 36.85C34.0734 38.1167 33.6234 39.2 32.7234 40.1C31.8568 40.9667 30.8068 41.4 29.5734 41.4C28.3068 41.4 27.2234 40.9667 26.3234 40.1C25.4568 39.2 25.0234 38.1167 25.0234 36.85C25.0234 35.6167 25.4568 34.5667 26.3234 33.7C27.2234 32.8 28.3068 32.35 29.5734 32.35Z" fill="black"/>
<path d="M57.4352 40.55V25.7H47.0352V40.55H38.8352V5.9H47.0352V19.3H57.4352V5.9H65.6352V40.55H57.4352Z" fill="black"/>
<path d="M74.8859 32.35C76.1193 32.35 77.1693 32.8 78.0359 33.7C78.9359 34.5667 79.3859 35.6167 79.3859 36.85C79.3859 38.1167 78.9359 39.2 78.0359 40.1C77.1693 40.9667 76.1193 41.4 74.8859 41.4C73.6193 41.4 72.5359 40.9667 71.6359 40.1C70.7693 39.2 70.3359 38.1167 70.3359 36.85C70.3359 35.6167 70.7693 34.5667 71.6359 33.7C72.5359 32.8 73.6193 32.35 74.8859 32.35Z" fill="black"/>
<path d="M95.5477 27.3H92.3477V40.55H84.1477V5.9H95.4977C100.231 5.9 103.781 6.76667 106.148 8.5C108.548 10.2333 109.748 12.8833 109.748 16.45C109.748 18.6833 109.214 20.55 108.148 22.05C107.081 23.5167 105.398 24.7667 103.098 25.8L111.898 40.55H102.648L95.5477 27.3ZM92.3477 21.65H95.7977C97.631 21.65 98.9977 21.2333 99.8977 20.4C100.831 19.5667 101.298 18.25 101.298 16.45C101.298 14.7833 100.798 13.5667 99.7977 12.8C98.831 12.0333 97.331 11.65 95.2977 11.65H92.3477V21.65Z" fill="black"/>
<path d="M117.757 32.35C118.99 32.35 120.04 32.8 120.907 33.7C121.807 34.5667 122.257 35.6167 122.257 36.85C122.257 38.1167 121.807 39.2 120.907 40.1C120.04 40.9667 118.99 41.4 117.757 41.4C116.49 41.4 115.407 40.9667 114.507 40.1C113.64 39.2 113.207 38.1167 113.207 36.85C113.207 35.6167 113.64 34.5667 114.507 33.7C115.407 32.8 116.49 32.35 117.757 32.35Z" fill="black"/>
<path d="M152.884 5.05C157.817 5.05 161.651 6.63333 164.384 9.8C167.151 12.9667 168.534 17.4333 168.534 23.2C168.534 26.9667 167.901 30.2167 166.634 32.95C165.401 35.6833 163.601 37.7833 161.234 39.25C158.901 40.6833 156.117 41.4 152.884 41.4C149.651 41.4 146.867 40.6833 144.534 39.25C142.201 37.8167 140.401 35.75 139.134 33.05C137.901 30.3167 137.284 27.0333 137.284 23.2C137.284 19.4667 137.901 16.2333 139.134 13.5C140.401 10.7667 142.201 8.68333 144.534 7.25C146.867 5.78333 149.651 5.05 152.884 5.05ZM152.884 11.05C150.517 11.05 148.751 12.0167 147.584 13.95C146.451 15.85 145.884 18.9333 145.884 23.2C145.884 27.4667 146.467 30.5667 147.634 32.5C148.801 34.4333 150.551 35.4 152.884 35.4C155.284 35.4 157.051 34.45 158.184 32.55C159.351 30.6167 159.934 27.5 159.934 23.2C159.934 18.9 159.351 15.8 158.184 13.9C157.017 12 155.251 11.05 152.884 11.05Z" fill="black"/>
<path d="M180.354 41.4C178.054 41.4 176.254 40.75 174.954 39.45C173.688 38.1167 173.054 36.2333 173.054 33.8V3.45L180.954 2.6V33.5C180.954 34.6 181.404 35.15 182.304 35.15C182.771 35.15 183.204 35.0667 183.604 34.9L185.154 40.5C183.721 41.1 182.121 41.4 180.354 41.4Z" fill="black"/>
<path d="M196.048 14V40.55H188.148V14H196.048ZM192.048 0C193.415 0 194.531 0.433334 195.398 1.3C196.298 2.13333 196.748 3.2 196.748 4.5C196.748 5.8 196.298 6.88333 195.398 7.75C194.531 8.58333 193.415 9 192.048 9C190.681 9 189.565 8.58333 188.698 7.75C187.831 6.88333 187.398 5.8 187.398 4.5C187.398 3.2 187.831 2.13333 188.698 1.3C189.565 0.433334 190.681 0 192.048 0Z" fill="black"/>
<path d="M225.109 14L216.759 40.55H207.409L198.859 14H207.459L212.159 34.55L217.059 14H225.109Z" fill="black"/>
<path d="M250.654 26.75C250.654 27.85 250.604 28.8 250.504 29.6H234.054C234.32 31.8333 234.954 33.4 235.954 34.3C236.954 35.2 238.337 35.65 240.104 35.65C241.17 35.65 242.204 35.4667 243.204 35.1C244.204 34.7 245.287 34.1 246.454 33.3L249.704 37.7C246.604 40.1667 243.154 41.4 239.354 41.4C235.054 41.4 231.754 40.1333 229.454 37.6C227.154 35.0667 226.004 31.6667 226.004 27.4C226.004 24.7 226.487 22.2833 227.454 20.15C228.42 17.9833 229.837 16.2833 231.704 15.05C233.57 13.7833 235.804 13.15 238.404 13.15C242.237 13.15 245.237 14.35 247.404 16.75C249.57 19.15 250.654 22.4833 250.654 26.75ZM242.904 24.5C242.837 20.4333 241.404 18.4 238.604 18.4C237.237 18.4 236.17 18.9 235.404 19.9C234.67 20.9 234.22 22.55 234.054 24.85H242.904V24.5Z" fill="black"/>
<path d="M262.991 14V40.55H255.091V14H262.991ZM258.991 0C260.358 0 261.475 0.433334 262.341 1.3C263.241 2.13333 263.691 3.2 263.691 4.5C263.691 5.8 263.241 6.88333 262.341 7.75C261.475 8.58333 260.358 9 258.991 9C257.625 9 256.508 8.58333 255.641 7.75C254.775 6.88333 254.341 5.8 254.341 4.5C254.341 3.2 254.775 2.13333 255.641 1.3C256.508 0.433334 257.625 0 258.991 0Z" fill="black"/>
<path d="M283.603 13.25C284.569 13.25 285.453 13.3667 286.253 13.6L285.003 21.25C284.003 21.0167 283.203 20.9 282.603 20.9C281.036 20.9 279.836 21.45 279.003 22.55C278.203 23.6167 277.569 25.2333 277.103 27.4V40.55H269.203V14H276.103L276.753 19.15C277.353 17.3167 278.253 15.8833 279.453 14.85C280.686 13.7833 282.069 13.25 283.603 13.25Z" fill="black"/>
<path d="M308.613 32.85C308.613 33.85 308.747 34.5833 309.013 35.05C309.313 35.5167 309.78 35.8667 310.413 36.1L308.763 41.25C307.13 41.1167 305.797 40.7667 304.763 40.2C303.73 39.6 302.93 38.6667 302.363 37.4C300.63 40.0667 297.963 41.4 294.363 41.4C291.73 41.4 289.63 40.6333 288.063 39.1C286.497 37.5667 285.713 35.5667 285.713 33.1C285.713 30.2 286.78 27.9833 288.913 26.45C291.047 24.9167 294.13 24.15 298.163 24.15H300.863V23C300.863 21.4333 300.53 20.3667 299.863 19.8C299.197 19.2 298.03 18.9 296.363 18.9C295.497 18.9 294.447 19.0333 293.213 19.3C291.98 19.5333 290.713 19.8667 289.413 20.3L287.613 15.1C289.28 14.4667 290.98 13.9833 292.713 13.65C294.48 13.3167 296.113 13.15 297.613 13.15C301.413 13.15 304.197 13.9333 305.963 15.5C307.73 17.0667 308.613 19.4167 308.613 22.55V32.85ZM296.663 35.75C298.463 35.75 299.863 34.9 300.863 33.2V28.5H298.913C297.113 28.5 295.763 28.8167 294.863 29.45C293.997 30.0833 293.563 31.0667 293.563 32.4C293.563 33.4667 293.83 34.3 294.363 34.9C294.93 35.4667 295.697 35.75 296.663 35.75Z" fill="black"/>
</svg>
